<svg width="50" height="50" viewBox="0 0 50 50" fill="none" xmlns="http://www.w3.org/2000/svg">
<rect width="50" height="50" rx="15" fill="white"/>
<path d="M5 38.6623V11H23.5384V15.822H10.9197V22.4134H22.308V27.2354H10.9197V38.6623H5Z" fill="#F56A41"/>
<path d="M27.5202 38.6623V11H33.3442V21.4004H33.522C33.7772 20.8421 34.1463 20.2748 34.6294 19.6985C35.1215 19.1132 35.7595 18.6269 36.5434 18.2397C37.3363 17.8435 38.3206 17.6454 39.4964 17.6454C41.0276 17.6454 42.4403 18.0416 43.7345 18.8341C45.0287 19.6175 46.0632 20.8016 46.8379 22.3864C47.6126 23.9622 48 25.9387 48 28.316C48 30.6302 47.6218 32.5842 46.8653 34.178C46.1179 35.7628 45.0971 36.9649 43.8029 37.7844C42.5178 38.5948 41.0777 39 39.4827 39C38.3525 39 37.391 38.8154 36.598 38.4462C35.8142 38.077 35.1717 37.6133 34.6704 37.055C34.1691 36.4877 33.7863 35.9159 33.522 35.3396H33.2622V38.6623H27.5202ZM33.2212 28.289C33.2212 29.5226 33.3944 30.5987 33.7407 31.5171C34.0871 32.4356 34.5883 33.1515 35.2446 33.6647C35.9008 34.169 36.6983 34.4211 37.6371 34.4211C38.585 34.4211 39.387 34.1645 40.0432 33.6512C40.6995 33.129 41.1962 32.4086 41.5334 31.4901C41.8798 30.5626 42.0529 29.4956 42.0529 28.289C42.0529 27.0913 41.8843 26.0378 41.5471 25.1283C41.2099 24.2188 40.7131 23.5075 40.0569 22.9942C39.4007 22.4809 38.5941 22.2243 37.6371 22.2243C36.6892 22.2243 35.8871 22.4719 35.2309 22.9672C34.5838 23.4625 34.0871 24.1648 33.7407 25.0743C33.3944 25.9838 33.2212 27.0553 33.2212 28.289Z" fill="#F56A41"/>
</svg>
